<?xml version="1.0" encoding="UTF-8"?>
<svg id="Layer_2" data-name="Layer 2" xmlns="http://www.w3.org/2000/svg" viewBox="0 0 1476.58 1476.58">
  <defs>
    <style>
      .cls-1 {
        fill: #c4dbed;
      }

      .cls-2 {
        fill: #7e9bb5;
      }

      .cls-3 {
        fill: #313155;
      }

      .cls-4 {
        fill: #46a77d;
      }
    </style>
  </defs>
  <path class="cls-1" d="M1148.41,796.52l.44,165.68-71.26,18.4-83.5,11.19c-50.74,6.8-251.34,4.38-251.34,4.38-41.58-1.8-80.36-9.47-119.06-22.06-61.68-20.07-122.92-44.25-177.72-84.27l-47.34-38.49-10.99-10.21-53.53-58.29-40.66-45.41-59.19-71.52-67.14-97.06c-4.38-6.84-6.81-14.58-2.39-21.32l178.96-1.84,203.78-2.49,600.59-7.61"/>
  <path class="cls-3" d="M1148.85,962.2l-2.94-426.26,330.67-3.68-62.81,122.95,55.28,21.67-56.77,82.95c-19.44,28.41-39.83,53.68-64.44,77.57l-47.55,46.16c-36.6,27.21-76.94,48.95-118.54,68.95l-32.91,9.68ZM1330.81,615.68c3.41-12.87-.65-22.8-8.78-31.3-10.75-11.25-22.54-16.66-39.27-12.04-10.67,2.94-20.94,12.95-24.41,26.64-5.75,22.7,9.09,42.47,31.88,44.98,19.54,2.15,35.27-8.28,40.58-28.28Z"/>
  <path class="cls-3" d="M164.73,547.53c-4.41,6.74-1.99,14.48,2.39,21.32L0,715.79l7.67-282.29,157.05,114.04Z"/>
  <polygon class="cls-3" points="879.72 539.05 635.92 542.15 762.81 387.44 879.72 539.05"/>
  <path class="cls-3" d="M623.69,974.11l-177.56,77.19-58.5-210.16,10.99,10.21,47.34,38.49c54.8,40.02,116.04,64.21,177.72,84.27Z"/>
  <polygon class="cls-3" points="1107.51 973.37 1060.67 1089.14 966.11 1073.53 1070.15 977.63 1107.51 973.37"/>
  <path class="cls-3" d="M547.47,543.2l-203.78,2.49c-.06-1.18,70.1-65.16,70.1-65.16,17.81-15.31,33.88-31.26,54.18-44.88l79.5,107.55Z"/>
  <path class="cls-3" d="M334.11,782.85c-26.65,11.74-89.97,38.81-96.37,40.98l-3.48-157.92,25.85,32.47,33.34,39.06,40.66,45.41Z"/>
  <path class="cls-4" d="M1330.81,615.68c-5.3,20-21.03,30.43-40.58,28.28-22.8-2.5-37.64-22.28-31.88-44.98,3.47-13.69,13.75-23.7,24.41-26.64,16.73-4.62,28.51.79,39.27,12.04,8.13,8.51,12.19,18.43,8.78,31.3Z"/>
  <g>
    <path class="cls-2" d="M1146.48,553.81l3.27,318.94-8.73,8.05c-8.28,10.06-18.36,24.36-29.87,31.41-26.46,16.23-56.62,17.53-89.05,14.87-11.01-.9-30.39-12.32-35-22.4-17.15-37.49-13.21-101.52-35.16-130.68l-45.13-59.94c-28.46-37.81-42.2-83.41-32.76-129.28l21.69-40.86c30.49-30.07,44.07-36.12,85.08-52.61l35.07-6.83c33.12-6.83,116.22,24.23,128.99,57.88,1.34,3.52-.29,8.82,1.59,11.45ZM1046.43,777.36c-17.97-35.36-54.05-42.42-59.72-58.57-2.37-6.73,25.79-8.3,23.33-23.48-2.53-15.61-38.11-16.15-55.55-.33-8.02,7.27-12.42,20.06-8.88,31.17,3.98,12.51,17.47,17.88,26.76,26.6,16.96,15.91,22.74,39.46,32.47,59.63l22.02,45.68c6.01,12.46,20.3,19.63,33.61,19.65,31.35.04,49.66-45.34,54.88-77.96,7.04-44.05,7.42-87.93,6.09-132.89-.69-23.22-6.44-44.29-13.12-66.26-5.43-17.86-7.92-37.64-23.76-50.91-10.03-8.4-27.7-18.31-41.75-20.69-54.33-9.22-105.21,27.86-110.92,77.4-1.38,12.01,3.16,21.23,11.56,27.7,6.3,4.86,19.52,8.33,28.02,2.83,17.64-11.42,10.73-45.4,29.82-56.2,13.77-7.79,38.97-11.37,52.8-2.41,12.38,8.02,17.23,27.15,21.32,39.65-15.96,6.17-33.29,9.03-43.28,21.65-16.47,20.8-19.2,55.09-5.53,77.57,10.8,17.75,32.6,22.21,51.77,29.9l-14.53,73.99c-19.28-8.13-10.61-30.34-17.4-43.7Z"/>
    <path class="cls-3" d="M1046.43,777.36c6.79,13.36-1.89,35.58,17.4,43.7l14.53-73.99c-19.18-7.69-40.97-12.15-51.77-29.9-13.67-22.47-10.94-56.76,5.53-77.57,9.99-12.62,27.33-15.48,43.28-21.65-4.09-12.5-8.94-31.63-21.32-39.65-13.83-8.96-39.03-5.38-52.8,2.41-19.09,10.8-12.18,44.77-29.82,56.2-8.5,5.51-21.72,2.03-28.02-2.83-8.4-6.47-12.94-15.69-11.56-27.7,5.71-49.54,56.59-86.62,110.92-77.4,14.05,2.38,31.72,12.3,41.75,20.69,15.84,13.27,18.33,33.05,23.76,50.91,6.68,21.97,12.44,43.04,13.12,66.26,1.33,44.96.95,88.83-6.09,132.89-5.21,32.62-23.53,78-54.88,77.96-13.31-.02-27.6-7.19-33.61-19.65l-22.02-45.68c-9.72-20.17-15.5-43.72-32.47-59.63-9.29-8.71-22.78-14.09-26.76-26.6-3.54-11.11.86-23.91,8.88-31.17,17.44-15.82,53.03-15.27,55.55.33,2.46,15.19-25.7,16.75-23.33,23.48,5.68,16.16,41.75,23.21,59.72,58.57ZM1076.33,702.53l-.45-48.52-10.24-.85c-5.88-.49-9.84,17.47-7.5,38.3.86,7.61,12.73,12.98,18.2,11.07Z"/>
    <path class="cls-2" d="M1076.33,702.53c-5.47,1.91-17.34-3.46-18.2-11.07-2.35-20.83,1.62-38.79,7.5-38.3l10.24.85.45,48.52Z"/>
  </g>
</svg>